<svg version="1.1" viewBox="0.0 0.0 894.8582677165355 190.66141732283464" fill="none" stroke="none" stroke-linecap="square" stroke-miterlimit="10" xmlns:xlink="http://www.w3.org/1999/xlink" xmlns="http://www.w3.org/2000/svg"><clipPath id="p.0"><path d="m0 0l894.8583 0l0 190.66142l-894.8583 0l0 -190.66142z" clip-rule="nonzero"/></clipPath><g clip-path="url(#p.0)"><path fill="#000000" fill-opacity="0.0" d="m0 0l894.8583 0l0 190.66142l-894.8583 0z" fill-rule="evenodd"/><g filter="url(#shadowFilter-p.1)"><use xlink:href="#p.1" transform="matrix(1.0 0.0 0.0 1.0 0.0 2.0)"/></g><defs><filter id="shadowFilter-p.1" filterUnits="userSpaceOnUse"><feGaussianBlur in="SourceAlpha" stdDeviation="2.0" result="blur"/><feComponentTransfer in="blur" color-interpolation-filters="sRGB"><feFuncR type="linear" slope="0" intercept="0.0"/><feFuncG type="linear" slope="0" intercept="0.0"/><feFuncB type="linear" slope="0" intercept="0.0"/><feFuncA type="linear" slope="0.5" intercept="0"/></feComponentTransfer></filter></defs><g id="p.1"><path fill="#fda061" d="m61.133858 38.66142l227.68506 0l0 112.913376l-227.68506 0z" fill-rule="evenodd"/></g><path fill="#000000" fill-opacity="0.0" d="m71.637794 64.1601l206.67719 0l0 54.960632l-206.67719 0z" fill-rule="evenodd"/><path fill="#ffffff" d="m103.929344 108.236046l1.0625 -8.78125l-5.328125 0l-1.0 8.59375l-2.84375 0.046875l1.015625 -8.546875l-4.65625 0l0.1875 -2.15625l4.75 0l0.96875 -8.203125l-5.234375 0l0.140625 -2.21875l5.328125 0l0.953125 -8.203125l2.9375 -0.09375l-1.015625 8.203125l5.28125 0l0.96875 -8.015625l2.96875 -0.046875l-0.953125 7.96875l4.359375 0l-0.28125 2.25l-4.375 0l-1.0 8.125l4.75 0l-0.234375 2.15625l-4.765625 0l-1.046875 8.734375l-2.9375 0.1875zm-3.984375 -10.9375l5.28125 0l1.015625 -8.15625l-5.328125 0l-0.96875 8.15625zm18.781296 11.421875l0 -29.953125l17.218758 0l0 2.921875l-13.859383 0l0 9.421875l11.171883 0l0 2.921875l-11.171883 0l0 14.6875l-3.359375 0zm22.843803 -29.90625l6.953125 0q3.703125 0 5.859375 0.984375q2.15625 0.984375 3.75 3.09375q2.921875 3.9375 2.921875 11.046875q-0.28125 7.25 -3.359375 11.0625q-3.078125 3.8125 -9.75 3.765625l-6.375 0l0 -29.953125zm6.234375 27.3125q9.890625 0 9.890625 -12.0q-0.046875 -6.09375 -2.265625 -9.28125q-2.203125 -3.203125 -7.09375 -3.203125l-3.59375 0l0 24.484375l3.0625 0zm34.95317 2.59375l-3.03125 -8.734375l-9.640625 0l-3.03125 8.734375l-3.3125 0l11.046875 -30.4375l0.375 0l11.046875 30.4375l-3.453125 0zm-11.765625 -11.328125l7.875 0l-3.9375 -11.421875l-3.9375 11.421875zm27.98442 -18.765625q4.421875 0 6.84375 4.078125q2.421875 4.078125 2.421875 11.234375q0 7.34375 -2.40625 11.328125q-2.390625 3.984375 -6.859375 3.984375q-4.46875 0 -6.875 -3.984375q-2.390625 -3.984375 -2.390625 -11.328125q0 -7.15625 2.421875 -11.234375q2.421875 -4.078125 6.84375 -4.078125zm0 2.921875q-2.734375 0 -4.28125 3.34375q-1.53125 3.328125 -1.53125 9.046875q0 3.125 0.4375 5.515625l10.171875 -13.15625q-0.71875 -2.296875 -1.953125 -3.515625q-1.21875 -1.234375 -2.84375 -1.234375zm0 24.765625q2.734375 0 4.265625 -3.203125q1.546875 -3.21875 1.546875 -9.171875q0 -2.78125 -0.34375 -4.796875l-10.171875 12.953125q1.53125 4.21875 4.703125 4.21875zm24.85942 -16.890625q2.265625 0 4.125 1.234375q1.875 1.21875 2.984375 3.453125q1.109375 2.21875 1.109375 5.109375q0 2.921875 -1.140625 5.1875q-1.125 2.25 -3.09375 3.53125q-1.96875 1.265625 -4.3125 1.265625q-4.421875 0 -6.875 -3.765625q-2.4375 -3.78125 -2.4375 -10.34375q0 -5.28125 1.296875 -9.03125q1.296875 -3.75 3.671875 -5.65625q2.375 -1.921875 5.59375 -1.921875q3.734375 0 6.578125 2.734375l-2.125 2.390625l-0.046875 0.046875q-1.0 -1.234375 -1.9375 -1.71875q-0.9375 -0.484375 -2.375 -0.484375q-1.59375 0 -3.21875 0.984375q-1.625 0.984375 -2.859375 3.5625q-1.21875 2.5625 -1.265625 7.015625q1.0 -1.671875 2.703125 -2.625q1.703125 -0.96875 3.625 -0.96875zm4.796875 -5.65625q0 -0.296875 0.4375 0.046875l-0.1875 0.1875l-0.25 -0.234375zm0.53125 -0.109375q0.296875 0.390625 0.125 0.28125q-0.171875 -0.125 -0.21875 -0.125l0.09375 -0.15625zm-5.515625 22.5625q2.15625 0 3.640625 -1.84375q1.5 -1.84375 1.5 -5.109375q0 -2.265625 -0.78125 -3.8125q-0.765625 -1.5625 -1.96875 -2.328125q-1.1875 -0.78125 -2.484375 -0.78125q-1.6875 0 -3.265625 1.140625q-1.578125 1.125 -2.59375 2.890625q-0.09375 0.78125 -0.09375 1.25q0 2.125 0.734375 4.09375q0.75 1.953125 2.140625 3.234375q1.390625 1.265625 3.171875 1.265625zm22.375046 2.5l0 -25.78125l-6.0625 1.78125l-0.765625 -1.875l7.828125 -4.078125l2.359375 0l0 29.953125l-3.359375 0z" fill-rule="nonzero"/><g filter="url(#shadowFilter-p.2)"><use xlink:href="#p.2" transform="matrix(1.0 0.0 0.0 1.0 0.0 2.0)"/></g><defs><filter id="shadowFilter-p.2" filterUnits="userSpaceOnUse"><feGaussianBlur in="SourceAlpha" stdDeviation="2.0" result="blur"/><feComponentTransfer in="blur" color-interpolation-filters="sRGB"><feFuncR type="linear" slope="0" intercept="0.0"/><feFuncG type="linear" slope="0" intercept="0.0"/><feFuncB type="linear" slope="0" intercept="0.0"/><feFuncA type="linear" slope="0.5" intercept="0"/></feComponentTransfer></filter></defs><g id="p.2"><path fill="#ecb172" d="m328.33334 38.66142l227.68503 0l0 112.913376l-227.68503 0z" fill-rule="evenodd"/></g><path fill="#000000" fill-opacity="0.0" d="m338.83728 64.1601l206.67719 0l0 54.960632l-206.67719 0z" fill-rule="evenodd"/><path fill="#ffffff" d="m371.1288 108.236046l1.0625 -8.78125l-5.328125 0l-1.0 8.59375l-2.84375 0.046875l1.015625 -8.546875l-4.65625 0l0.1875 -2.15625l4.75 0l0.96875 -8.203125l-5.234375 0l0.140625 -2.21875l5.328125 0l0.953125 -8.203125l2.9375 -0.09375l-1.015625 8.203125l5.28125 0l0.96875 -8.015625l2.96875 -0.046875l-0.953125 7.96875l4.359375 0l-0.28125 2.25l-4.375 0l-1.0 8.125l4.75 0l-0.234375 2.15625l-4.765625 0l-1.046875 8.734375l-2.9375 0.1875zm-3.984375 -10.9375l5.28125 0l1.015625 -8.15625l-5.328125 0l-0.96875 8.15625zm17.859436 11.421875l0 -29.953125l18.34375 0l0 2.984375l-15.171875 0l0 9.828125l12.53125 0l0 3.078125l-12.53125 0l0 11.09375l15.03125 0l0 2.96875l-18.203125 0zm34.703156 -2.40625q1.78125 0 3.40625 -0.984375q1.640625 -0.984375 2.640625 -2.65625l2.5 1.625q-1.484375 2.453125 -3.5 3.6875q-2.015625 1.21875 -4.890625 1.21875q-3.375 0 -5.984375 -1.65625q-2.609375 -1.65625 -4.171875 -5.0625q-1.5625 -3.40625 -1.5625 -8.546875q0 -5.515625 1.671875 -8.953125q1.6875 -3.4375 4.28125 -4.921875q2.59375 -1.484375 5.5625 -1.484375q3.171875 0 5.5 1.59375q2.328125 1.578125 3.53125 4.3125l-2.890625 1.34375q-0.046875 0 -0.046875 -0.015625q0 -0.03125 0 -0.03125q-1.234375 -2.5 -2.78125 -3.5q-1.53125 -1.015625 -3.40625 -1.015625q-3.796875 0 -5.984375 3.296875q-2.171875 3.28125 -2.171875 9.125q0 3.703125 1.09375 6.59375q1.109375 2.875 3.0 4.453125q1.90625 1.578125 4.203125 1.578125zm5.53125 -20.640625q0.09375 -0.09375 0.09375 -0.09375q0.09375 0 0.375 0.296875l-0.328125 0.140625l-0.140625 -0.34375zm0.5625 0.15625q0.203125 0.421875 -0.09375 0.046875l0.09375 -0.046875zm6.671936 -7.015625l8.5 0q5.0 0 7.46875 1.953125q2.46875 1.9375 2.46875 5.296875q0 2.203125 -1.171875 4.0625q-1.171875 1.84375 -3.25 2.5625q2.5 0.859375 4.0625 3.0q1.5625 2.140625 1.5625 4.625q0 3.9375 -2.78125 6.171875q-2.78125 2.234375 -8.40625 2.234375l-8.453125 0l0 -29.90625zm8.015625 12.390625q7.0625 0 7.0625 -4.75q0 -2.171875 -1.59375 -3.484375q-1.578125 -1.328125 -4.9375 -1.328125l-5.234375 0l0 9.5625l4.703125 0zm1.015625 14.59375q7.0625 0 7.0625 -5.671875q0 -6.09375 -7.875 -6.09375l-4.90625 0l0 11.765625l5.71875 0zm23.71878 2.921875l0 -25.78125l-6.0625 1.78125l-0.765625 -1.875l7.828125 -4.078125l2.359375 0l0 29.953125l-3.359375 0zm20.390686 0q4.171875 -13.6875 9.125 -26.734375l-12.765625 0l0 -3.171875l16.9375 0l0 1.875q-5.90625 14.875 -9.5 28.03125l-3.796875 0zm20.06253 -2.6875l3.890625 -3.9375q3.890625 -3.890625 5.828125 -6.09375q1.953125 -2.203125 3.09375 -4.390625q1.15625 -2.1875 1.15625 -4.53125q0 -2.9375 -1.390625 -4.234375q-1.390625 -1.296875 -3.6875 -1.296875q-2.078125 0 -3.828125 0.921875q-1.75 0.90625 -2.328125 2.015625q-0.28125 0.515625 -0.578125 1.078125q-0.28125 0.546875 -0.28125 0.640625q0 0.046875 0.046875 0.046875q0.046875 0 0.1875 -0.0625q0.15625 -0.078125 0.203125 0.109375l-0.15625 0.296875l-0.421875 -0.25l-2.453125 -1.90625q1.4375 -2.796875 3.9375 -4.296875q2.5 -1.515625 5.625 -1.515625q3.828125 0 6.203125 2.3125q2.375 2.296875 2.375 6.234375q0 2.59375 -1.25 5.046875q-1.234375 2.4375 -3.1875 4.65625q-1.9375 2.203125 -5.390625 5.609375l-3.265625 3.3125l11.125 0q0.78125 0 1.140625 -0.09375q0.359375 -0.109375 0.640625 -0.390625l0.34375 0l0 3.40625l-17.578125 0l0 -2.6875z" fill-rule="nonzero"/><g filter="url(#shadowFilter-p.3)"><use xlink:href="#p.3" transform="matrix(1.0 0.0 0.0 1.0 0.0 2.0)"/></g><defs><filter id="shadowFilter-p.3" filterUnits="userSpaceOnUse"><feGaussianBlur in="SourceAlpha" stdDeviation="2.0" result="blur"/><feComponentTransfer in="blur" color-interpolation-filters="sRGB"><feFuncR type="linear" slope="0" intercept="0.0"/><feFuncG type="linear" slope="0" intercept="0.0"/><feFuncB type="linear" slope="0" intercept="0.0"/><feFuncA type="linear" slope="0.5" intercept="0"/></feComponentTransfer></filter></defs><g id="p.3"><path fill="#d67548" d="m606.03674 38.66142l227.68506 0l0 112.913376l-227.68506 0z" fill-rule="evenodd"/></g><path fill="#000000" fill-opacity="0.0" d="m616.5407 64.1601l206.67712 0l0 54.960632l-206.67712 0z" fill-rule="evenodd"/><path fill="#ffffff" d="m648.8322 108.236046l1.0625 -8.78125l-5.328125 0l-1.0 8.59375l-2.84375 0.046875l1.015625 -8.546875l-4.65625 0l0.1875 -2.15625l4.75 0l0.96875 -8.203125l-5.234375 0l0.140625 -2.21875l5.328125 0l0.953125 -8.203125l2.9375 -0.09375l-1.015625 8.203125l5.28125 0l0.96875 -8.015625l2.96875 -0.046875l-0.953125 7.96875l4.359375 0l-0.28125 2.25l-4.375 0l-1.0 8.125l4.75 0l-0.234375 2.15625l-4.765625 0l-1.046875 8.734375l-2.9375 0.1875zm-3.984375 -10.9375l5.28125 0l1.015625 -8.15625l-5.328125 0l-0.96875 8.15625zm17.859436 11.421875l0 -29.953125l18.34375 0l0 2.984375l-15.171875 0l0 9.828125l12.53125 0l0 3.078125l-12.53125 0l0 11.09375l15.03125 0l0 2.96875l-18.203125 0zm34.703186 -2.40625q1.78125 0 3.40625 -0.984375q1.640625 -0.984375 2.640625 -2.65625l2.5 1.625q-1.484375 2.453125 -3.5 3.6875q-2.015625 1.21875 -4.890625 1.21875q-3.375 0 -5.984375 -1.65625q-2.609375 -1.65625 -4.171875 -5.0625q-1.5625 -3.40625 -1.5625 -8.546875q0 -5.515625 1.671875 -8.953125q1.6875 -3.4375 4.28125 -4.921875q2.59375 -1.484375 5.5625 -1.484375q3.171875 0 5.5 1.59375q2.328125 1.578125 3.53125 4.3125l-2.890625 1.34375q-0.046875 0 -0.046875 -0.015625q0 -0.03125 0 -0.03125q-1.234375 -2.5 -2.78125 -3.5q-1.53125 -1.015625 -3.40625 -1.015625q-3.796875 0 -5.984375 3.296875q-2.171875 3.28125 -2.171875 9.125q0 3.703125 1.09375 6.59375q1.109375 2.875 3.0 4.453125q1.90625 1.578125 4.203125 1.578125zm5.53125 -20.640625q0.09375 -0.09375 0.09375 -0.09375q0.09375 0 0.375 0.296875l-0.328125 0.140625l-0.140625 -0.34375zm0.5625 0.15625q0.203125 0.421875 -0.09375 0.046875l0.09375 -0.046875zm6.671936 -7.015625l8.5 0q5.0 0 7.46875 1.953125q2.46875 1.9375 2.46875 5.296875q0 2.203125 -1.171875 4.0625q-1.171875 1.84375 -3.25 2.5625q2.5 0.859375 4.0625 3.0q1.5625 2.140625 1.5625 4.625q0 3.9375 -2.78125 6.171875q-2.78125 2.234375 -8.40625 2.234375l-8.453125 0l0 -29.90625zm8.015625 12.390625q7.0625 0 7.0625 -4.75q0 -2.171875 -1.59375 -3.484375q-1.578125 -1.328125 -4.9375 -1.328125l-5.234375 0l0 9.5625l4.703125 0zm1.015625 14.59375q7.0625 0 7.0625 -5.671875q0 -6.09375 -7.875 -6.09375l-4.90625 0l0 11.765625l5.71875 0zm23.71875 2.921875l0 -25.78125l-6.0625 1.78125l-0.765625 -1.875l7.828125 -4.078125l2.359375 0l0 29.953125l-3.359375 0zm20.390686 0q4.171875 -13.6875 9.125 -26.734375l-12.765625 0l0 -3.171875l16.9375 0l0 1.875q-5.90625 14.875 -9.5 28.03125l-3.796875 0zm20.062561 -2.6875l3.890625 -3.9375q3.890625 -3.890625 5.828125 -6.09375q1.953125 -2.203125 3.09375 -4.390625q1.15625 -2.1875 1.15625 -4.53125q0 -2.9375 -1.390625 -4.234375q-1.390625 -1.296875 -3.6875 -1.296875q-2.078125 0 -3.828125 0.921875q-1.75 0.90625 -2.328125 2.015625q-0.28125 0.515625 -0.578125 1.078125q-0.28125 0.546875 -0.28125 0.640625q0 0.046875 0.046875 0.046875q0.046875 0 0.1875 -0.0625q0.15625 -0.078125 0.203125 0.109375l-0.15625 0.296875l-0.421875 -0.25l-2.453125 -1.90625q1.4375 -2.796875 3.9375 -4.296875q2.5 -1.515625 5.625 -1.515625q3.828125 0 6.203125 2.3125q2.375 2.296875 2.375 6.234375q0 2.59375 -1.25 5.046875q-1.234375 2.4375 -3.1875 4.65625q-1.9375 2.203125 -5.390625 5.609375l-3.265625 3.3125l11.125 0q0.78125 0 1.140625 -0.09375q0.359375 -0.109375 0.640625 -0.390625l0.34375 0l0 3.40625l-17.578125 0l0 -2.6875z" fill-rule="nonzero"/></g></svg>